<svg width="521" height="422" viewBox="0 0 521 422" fill="none" xmlns="http://www.w3.org/2000/svg">
<g clip-path="url(#clip0_57_475)">
<path d="M152.712 397.676C154.7 399.554 157.142 400.891 159.801 401.559C162.46 402.226 165.247 402.202 167.894 401.487C174.677 399.573 179.281 393.488 183.367 387.773L195.458 370.875L185.268 372.733C177.94 374.069 170.431 375.471 164.05 379.294C157.668 383.117 152.556 389.941 152.961 397.337" fill="#E6E6E6"/>
<path d="M143.24 420.439C145.027 414.381 146.825 408.24 149.98 402.719C152.782 397.815 156.611 393.513 161.662 390.838C164.341 389.422 167.248 388.482 170.253 388.06C171.036 387.95 171.164 389.162 170.384 389.272C165.182 390.011 160.351 392.373 156.587 396.018C152.415 400.077 149.677 405.31 147.654 410.696C146.429 413.953 145.44 417.289 144.456 420.625C144.427 420.783 144.338 420.924 144.208 421.019C144.078 421.114 143.916 421.155 143.756 421.136C143.596 421.11 143.452 421.023 143.356 420.893C143.26 420.762 143.219 420.599 143.243 420.44L143.24 420.439Z" fill="#F2F2F2"/>
<path d="M340.007 176.447C341.168 176.169 342.377 176.147 343.547 176.383C344.718 176.62 345.822 177.108 346.783 177.815C347.743 178.522 348.536 179.429 349.105 180.473C349.674 181.517 350.006 182.673 350.078 183.858L378.033 191.672L366.627 201.494L341.829 192.569C339.817 192.556 337.881 191.811 336.385 190.473C334.89 189.136 333.94 187.3 333.716 185.312C333.491 183.325 334.007 181.325 335.167 179.691C336.326 178.057 338.048 176.903 340.007 176.447L340.007 176.447Z" fill="#FFB7B7"/>
<path d="M411.843 413.112L403.694 413.111L399.817 381.862L411.844 381.863L411.843 413.112Z" fill="#FFB7B7"/>
<path d="M413.921 420.965L387.647 420.964V420.634C387.647 417.937 388.724 415.351 390.642 413.444C392.56 411.537 395.161 410.466 397.873 410.466H397.874L413.921 410.466L413.921 420.965Z" fill="#2F2E41"/>
<path d="M459.59 413.112L451.442 413.111L447.565 381.862L459.591 381.863L459.59 413.112Z" fill="#FFB7B7"/>
<path d="M461.668 420.965L435.394 420.964V420.634C435.394 417.937 436.472 415.351 438.39 413.444C440.307 411.537 442.908 410.466 445.621 410.466H445.621L461.669 410.466L461.668 420.965Z" fill="#2F2E41"/>
<path d="M405.185 233.755L393.182 316.418L396.172 403.512L414.197 404.939L419.833 326.833L434.18 283.281L442.616 345.364L442.962 403.512L461.574 404.939L468.065 282.69L463.291 229.524L405.185 233.755Z" fill="#2F2E41"/>
<path d="M439.901 123.08C450.388 123.08 458.89 114.628 458.89 104.201C458.89 93.7741 450.388 85.3215 439.901 85.3215C429.414 85.3215 420.913 93.7741 420.913 104.201C420.913 114.628 429.414 123.08 439.901 123.08Z" fill="#FFB7B7"/>
<path d="M428.197 133.35L407.235 238.351C407.235 238.351 442.528 248.423 457.99 239.125C473.451 229.827 466.523 201.125 466.523 201.125L463.691 152.286L458.458 139.935L454.019 129.74L428.197 133.35Z" fill="#CBCBCB"/>
<path d="M422.061 207.882L429.303 131.311L423.512 135.515L403.263 142.053L401.877 195.962L387.713 266.853C387.713 266.853 397.837 286.496 410.385 254L422.061 207.882Z" fill="#7A7A81"/>
<path d="M413.008 150.116L403.263 142.053L381.361 189.357L356.921 184.034L355.767 198.386L391.177 212.319L415.308 178.918L413.008 150.116Z" fill="#7A7A81"/>
<path d="M450.918 191.122L453.648 128.803L463.691 136.537L481.628 141.508L478.998 191.122L482.783 268.107L463.978 274.029L458.699 225.451L450.918 191.122Z" fill="#7A7A81"/>
<path d="M452.125 241.288C452.336 240.118 452.801 239.009 453.489 238.038C454.177 237.067 455.071 236.258 456.108 235.668C457.145 235.078 458.299 234.721 459.489 234.622C460.68 234.523 461.878 234.685 462.998 235.096L481.428 212.784L485.891 227.117L467.705 246.107C466.886 247.933 465.421 249.397 463.588 250.221C461.756 251.045 459.683 251.172 457.762 250.578C455.842 249.984 454.207 248.71 453.168 246.998C452.129 245.285 451.758 243.254 452.125 241.288V241.288Z" fill="#FFB7B7"/>
<path d="M469.619 148.425L481.628 141.508L511.846 200.838L482.385 241.513L465.581 228.155L485.985 201.699L467.389 173.284L469.619 148.425Z" fill="#7A7A81"/>
<path d="M457.76 89.1079L458.681 87.2658L454.049 84.9777C454.049 84.9777 448.939 76.7112 439.693 79.0342C430.446 81.3573 426.286 82.7476 426.286 82.7476L421.666 85.059L423.985 87.353L419.825 88.7433L422.604 90.1162L419.37 91.9642L421.111 101.437C421.111 101.437 424.002 94.2523 429.561 96.9981C435.119 99.7439 445.286 95.5787 445.286 95.5787L454.119 112.575C454.119 112.575 455.941 106.617 459.19 108.206C459.19 108.206 467.49 95.063 457.76 89.1079Z" fill="#2F2E41"/>
<path d="M342.419 116.806H342.297L272.661 146.37L177.385 186.821C177.012 186.976 176.613 187.058 176.209 187.06C175.805 187.062 175.405 186.985 175.031 186.833L76.7335 146.286L5.38653 116.854L5.27756 116.806H5.1561C4.03035 116.807 2.95108 117.253 2.15506 118.044C1.35904 118.836 0.911288 119.909 0.910034 121.028V304.372C0.91129 305.491 1.35904 306.564 2.15506 307.356C2.95108 308.147 4.03035 308.592 5.1561 308.593H342.419C343.545 308.592 344.624 308.147 345.42 307.356C346.216 306.564 346.664 305.491 346.665 304.372V121.028C346.664 119.909 346.216 118.836 345.42 118.044C344.624 117.253 343.545 116.807 342.419 116.806V116.806Z" fill="white"/>
<path d="M342.722 118.012C342.598 118.012 342.477 117.975 342.375 117.904L174.618 1.74421C174.108 1.39235 173.501 1.20431 172.88 1.20536C172.259 1.20641 171.653 1.3965 171.143 1.75009L4.59447 117.903C4.46272 117.995 4.29979 118.031 4.14146 118.003C3.98312 117.975 3.84234 117.886 3.75002 117.755C3.6577 117.624 3.62139 117.462 3.64908 117.305C3.67677 117.147 3.76618 117.007 3.89768 116.915L170.447 0.76243C171.16 0.267492 172.008 0.00142669 172.878 5.72154e-06C173.748 -0.00141525 174.597 0.261874 175.312 0.754479L343.069 116.914C343.175 116.988 343.254 117.093 343.296 117.214C343.338 117.336 343.339 117.468 343.301 117.59C343.262 117.713 343.185 117.82 343.081 117.896C342.976 117.972 342.851 118.012 342.722 118.012L342.722 118.012Z" fill="#3F3D56"/>
<path d="M14.1113 122.13L173.044 5.01733L333.184 130.463L181.233 220.024L98.7373 201.328L14.1113 122.13Z" fill="#E6E6E6"/>
<path d="M105.701 275.342H27.1843C26.7022 275.344 26.2245 275.25 25.7786 275.068C25.3327 274.886 24.9273 274.618 24.5856 274.28C24.244 273.941 23.9727 273.539 23.7874 273.097C23.6021 272.654 23.5063 272.18 23.5056 271.7C23.5049 271.221 23.5993 270.746 23.7833 270.303C23.9673 269.86 24.2373 269.457 24.578 269.118C24.9186 268.779 25.3232 268.51 25.7686 268.326C26.2139 268.142 26.6913 268.048 27.1735 268.048H105.701C106.183 268.047 106.661 268.14 107.107 268.322C107.553 268.504 107.958 268.772 108.3 269.111C108.642 269.449 108.913 269.851 109.098 270.293C109.283 270.736 109.379 271.21 109.38 271.69C109.381 272.169 109.286 272.644 109.102 273.087C108.918 273.53 108.648 273.933 108.308 274.272C107.967 274.611 107.562 274.88 107.117 275.064C106.672 275.248 106.194 275.342 105.712 275.342H105.701Z" fill="#20C9FE"/>
<path d="M55.3544 259.661H27.1843C26.7022 259.663 26.2245 259.57 25.7786 259.387C25.3327 259.205 24.9273 258.937 24.5856 258.599C24.244 258.26 23.9727 257.859 23.7874 257.416C23.6021 256.973 23.5063 256.499 23.5056 256.02C23.5049 255.54 23.5993 255.065 23.7833 254.622C23.9673 254.179 24.2373 253.776 24.578 253.437C24.9186 253.098 25.3232 252.829 25.7686 252.645C26.2139 252.462 26.6913 252.367 27.1735 252.367H55.3544C56.3264 252.367 57.2588 252.75 57.9466 253.433C58.6345 254.116 59.0217 255.042 59.0232 256.009C59.0246 256.975 58.6402 257.903 57.9543 258.588C57.2685 259.272 56.3373 259.659 55.3653 259.661H55.3544Z" fill="#20C9FE"/>
<path d="M175.28 187.36C174.683 187.361 174.092 187.246 173.539 187.021L75.5203 146.584V20.0076C75.5216 18.8884 75.9693 17.8153 76.7653 17.0239C77.5614 16.2324 78.6406 15.7872 79.7663 15.7859H267.809C268.934 15.7872 270.014 16.2324 270.81 17.0239C271.606 17.8153 272.053 18.8884 272.055 20.0076V146.672L271.87 146.75L177.073 187.001C176.505 187.239 175.895 187.361 175.28 187.36V187.36Z" fill="url(#paint0_linear_57_475)"/>
<path d="M341.509 116.806H341.387L271.751 146.37L176.475 186.821C176.102 186.976 175.703 187.058 175.299 187.06C174.895 187.062 174.495 186.985 174.121 186.833L75.8235 146.286L4.47657 116.854L4.36759 116.806H4.24606C3.12031 116.807 2.04104 117.253 1.24502 118.044C0.449005 118.836 0.00125198 119.909 0 121.028V304.372C0.00125198 305.491 0.449005 306.564 1.24502 307.356C2.04104 308.147 3.12032 308.592 4.24606 308.593H341.509C342.635 308.592 343.714 308.147 344.51 307.356C345.306 306.564 345.754 305.491 345.755 304.372V121.028C345.754 119.909 345.306 118.836 344.51 118.044C343.714 117.253 342.635 116.807 341.509 116.806ZM344.542 304.372C344.541 305.171 344.222 305.938 343.653 306.504C343.084 307.069 342.313 307.387 341.509 307.387H4.24606C3.44177 307.387 2.67052 307.069 2.1018 306.504C1.53308 305.938 1.21342 305.171 1.2131 304.372V121.028C1.2142 120.248 1.51843 119.499 2.06219 118.937C2.60595 118.375 3.34715 118.044 4.13084 118.012L75.8235 147.589L173.654 187.948C174.713 188.377 175.9 188.37 176.954 187.93L271.751 147.679L341.63 118.012C342.413 118.046 343.152 118.378 343.694 118.94C344.236 119.501 344.54 120.249 344.542 121.028L344.542 304.372Z" fill="#3F3D56"/>
<path d="M160.02 63.1006H93.2952C92.0096 63.0984 90.7775 62.5891 89.8693 61.6845C88.9611 60.7799 88.4509 59.5539 88.4509 58.2758C88.4509 56.9976 88.9611 55.7717 89.8693 54.8671C90.7775 53.9625 92.0096 53.4532 93.2952 53.4509H160.02C161.305 53.4532 162.538 53.9625 163.446 54.8671C164.354 55.7717 164.864 56.9976 164.864 58.2758C164.864 59.5539 164.354 60.7799 163.446 61.6845C162.538 62.5891 161.305 63.0984 160.02 63.1006V63.1006Z" fill="white"/>
<path d="M125.444 42.595H93.2951C92.0081 42.595 90.7738 42.0867 89.8637 41.1818C88.9536 40.277 88.4424 39.0498 88.4424 37.7701C88.4424 36.4905 88.9536 35.2633 89.8637 34.3585C90.7738 33.4536 92.0081 32.9453 93.2951 32.9453H125.444C126.731 32.9453 127.966 33.4536 128.876 34.3585C129.786 35.2633 130.297 36.4905 130.297 37.7701C130.297 39.0498 129.786 40.277 128.876 41.1818C127.966 42.0867 126.731 42.595 125.444 42.595V42.595Z" fill="white"/>
<path d="M223.692 111.349H121.786C120.499 111.349 119.264 110.841 118.354 109.936C117.444 109.031 116.933 107.804 116.933 106.524C116.933 105.244 117.444 104.017 118.354 103.112C119.264 102.208 120.499 101.699 121.786 101.699H223.692C224.979 101.699 226.214 102.208 227.124 103.112C228.034 104.017 228.545 105.244 228.545 106.524C228.545 107.804 228.034 109.031 227.124 109.936C226.214 110.841 224.979 111.349 223.692 111.349V111.349Z" fill="white"/>
<path d="M223.692 133.664H121.786C121.148 133.665 120.516 133.541 119.926 133.299C119.336 133.057 118.8 132.702 118.349 132.254C117.897 131.806 117.539 131.273 117.295 130.687C117.05 130.101 116.924 129.473 116.924 128.839C116.924 128.205 117.05 127.577 117.295 126.991C117.539 126.405 117.897 125.872 118.349 125.424C118.8 124.976 119.336 124.621 119.926 124.379C120.516 124.137 121.148 124.013 121.786 124.014H223.692C224.33 124.013 224.962 124.137 225.552 124.379C226.142 124.621 226.678 124.976 227.129 125.424C227.581 125.872 227.939 126.405 228.183 126.991C228.428 127.577 228.554 128.205 228.554 128.839C228.554 129.473 228.428 130.101 228.183 130.687C227.939 131.273 227.581 131.806 227.129 132.254C226.678 132.702 226.142 133.057 225.552 133.299C224.962 133.541 224.33 133.665 223.692 133.664V133.664Z" fill="white"/>
<path d="M180.485 421.727H108.681C108.485 421.727 108.297 421.65 108.158 421.512C108.019 421.374 107.941 421.187 107.941 420.991C107.941 420.796 108.019 420.609 108.158 420.471C108.297 420.333 108.485 420.255 108.681 420.255H180.485C180.682 420.255 180.87 420.333 181.009 420.471C181.148 420.609 181.226 420.796 181.226 420.991C181.226 421.187 181.148 421.374 181.009 421.512C180.87 421.65 180.682 421.727 180.485 421.727Z" fill="#CBCBCB"/>
<path d="M135.083 398.972C137.825 398.909 140.505 398.145 142.864 396.754C145.222 395.363 147.181 393.392 148.551 391.03C152.003 384.916 150.952 377.373 149.796 370.457L146.384 349.999L140.477 358.46C136.229 364.545 131.899 370.804 130.085 377.989C128.272 385.174 129.488 393.596 135.02 398.557" fill="#E6E6E6"/>
<path d="M144.513 421.752C141.483 416.204 138.402 410.589 136.723 404.462C135.232 399.021 134.896 393.286 136.58 387.848C137.475 384.966 138.87 382.261 140.7 379.855C141.178 379.228 142.128 379.998 141.653 380.622C138.489 384.793 136.739 389.855 136.655 395.079C136.576 400.882 138.347 406.512 140.732 411.75C142.173 414.918 143.838 417.976 145.507 421.032C145.598 421.164 145.635 421.326 145.61 421.484C145.585 421.643 145.5 421.786 145.372 421.884C145.241 421.979 145.077 422.018 144.916 421.992C144.756 421.967 144.611 421.88 144.515 421.75L144.513 421.752Z" fill="#F2F2F2"/>
</g>
<defs>
<linearGradient id="paint0_linear_57_475" x1="76" y1="16" x2="272" y2="187" gradientUnits="userSpaceOnUse">
<stop stop-color="#79E9FF"/>
<stop offset="1" stop-color="#F99FFF"/>
</linearGradient>
<clipPath id="clip0_57_475">
<rect width="521" height="422" fill="white"/>
</clipPath>
</defs>
</svg>
