<svg width="5815" height="1128" viewBox="0 0 5815 1128" fill="none" xmlns="http://www.w3.org/2000/svg">
    <path d="M184.901 11.6842C173.066 -5.56499 146.544 -1.51801 140.392 18.4757L11.9399 435.945C-13.5133 518.668 5.63098 608.671 62.5488 673.874L450.933 1118.79C466.123 1136.19 494.767 1125.44 494.767 1102.35V881.121C494.767 873.156 492.864 865.306 489.216 858.224L359.006 605.448C350.435 588.81 362.515 569 381.231 569H430.056H571.871H715.114H760.981C779.646 569 791.729 588.713 783.258 605.346L654.421 858.307C650.841 865.336 648.975 873.112 648.975 881V1102.18C648.975 1125.3 677.661 1136.03 692.836 1118.59L1079.8 673.821C1136.52 608.636 1155.55 518.786 1130.14 436.203L1001.71 18.8192C995.543 -1.23451 968.905 -5.22552 957.128 12.1394L722.552 358.032C717.9 364.892 710.15 369 701.861 369H443.222C434.981 369 427.27 364.939 422.608 358.144L184.901 11.6842Z" fill="url(#paint0_linear_0_1)"/>
    <path d="M1550.73 191L1730.55 757.09H1737.45L1917.63 191H2091.99L1835.53 936.086H1632.83L1376 191H1550.73Z" fill="white"/>
    <path d="M2367.8 947C2311.37 947 2262.58 934.994 2221.41 910.983C2180.48 886.729 2148.87 853.015 2126.59 809.843C2104.31 766.428 2093.17 716.101 2093.17 658.861C2093.17 601.137 2104.31 550.688 2126.59 507.516C2148.87 464.101 2180.48 430.388 2221.41 406.376C2262.58 382.122 2311.37 369.995 2367.8 369.995C2424.23 369.995 2472.91 382.122 2513.83 406.376C2555 430.388 2586.73 464.101 2609.01 507.516C2631.29 550.688 2642.43 601.137 2642.43 658.861C2642.43 716.101 2631.29 766.428 2609.01 809.843C2586.73 853.015 2555 886.729 2513.83 910.983C2472.91 934.994 2424.23 947 2367.8 947ZM2368.53 826.942C2394.2 826.942 2415.63 819.666 2432.83 805.114C2450.02 790.319 2462.98 770.188 2471.69 744.721C2480.66 719.254 2485.14 690.27 2485.14 657.77C2485.14 625.269 2480.66 596.286 2471.69 570.819C2462.98 545.352 2450.02 525.221 2432.83 510.426C2415.63 495.631 2394.2 488.234 2368.53 488.234C2342.62 488.234 2320.82 495.631 2303.14 510.426C2285.7 525.221 2272.51 545.352 2263.54 570.819C2254.83 596.286 2250.47 625.269 2250.47 657.77C2250.47 690.27 2254.83 719.254 2263.54 744.721C2272.51 770.188 2285.7 790.319 2303.14 805.114C2320.82 819.666 2342.62 826.942 2368.53 826.942Z" fill="white"/>
    <path d="M2852.4 377.271L2954.84 572.638L3059.82 377.271H3218.57L3056.91 656.678L3222.92 936.086H3064.9L2954.84 742.902L2846.58 936.086H2686.75L2852.4 656.678L2692.56 377.271H2852.4Z" fill="white"/>
    <path d="M3313.38 936.086V191H3470.67V498.421H3789.98V191H3946.91V936.086H3789.98V628.301H3470.67V936.086H3313.38Z" fill="white"/>
    <path d="M4279.3 945.181C4236.92 945.181 4198.53 934.267 4164.14 912.438C4129.99 890.367 4102.87 857.987 4082.77 815.3C4062.91 772.37 4052.98 719.739 4052.98 657.406C4052.98 593.375 4063.28 540.138 4083.86 497.693C4104.45 455.006 4131.81 423.112 4165.96 402.011C4200.35 380.667 4238.01 369.995 4278.93 369.995C4310.17 369.995 4336.21 375.331 4357.03 386.003C4378.1 396.432 4395.06 409.529 4407.89 425.294C4420.97 440.817 4430.9 456.097 4437.68 471.135H4442.4V377.271H4596.79V936.086H4444.22V846.588H4437.68C4430.41 862.111 4420.12 877.512 4406.8 892.792C4393.72 907.83 4376.65 920.32 4355.58 930.265C4334.75 940.209 4309.33 945.181 4279.3 945.181ZM4328.34 821.849C4353.28 821.849 4374.35 815.058 4391.54 801.475C4408.98 787.651 4422.3 768.369 4431.5 743.629C4440.95 718.89 4445.67 689.907 4445.67 656.678C4445.67 623.45 4441.07 594.588 4431.87 570.091C4422.66 545.595 4409.34 526.677 4391.91 513.337C4374.47 499.997 4353.28 493.327 4328.34 493.327C4302.91 493.327 4281.48 500.24 4264.04 514.064C4246.6 527.889 4233.4 547.05 4224.44 571.547C4215.48 596.043 4211 624.421 4211 656.678C4211 689.179 4215.48 717.92 4224.44 742.902C4233.65 767.641 4246.84 787.044 4264.04 801.112C4281.48 814.936 4302.91 821.849 4328.34 821.849Z" fill="white"/>
    <path d="M5188.27 536.621L5046.6 545.352C5044.18 533.225 5038.97 522.311 5030.98 512.609C5022.99 502.665 5012.45 494.782 4999.38 488.961C4986.54 482.898 4971.16 479.866 4953.24 479.866C4929.27 479.866 4909.04 484.96 4892.58 495.146C4876.11 505.09 4867.87 518.43 4867.87 535.165C4867.87 548.505 4873.2 559.783 4883.86 569C4894.51 578.217 4912.8 585.614 4938.71 591.192L5039.7 611.566C5093.95 622.723 5134.39 640.671 5161.03 665.41C5187.67 690.149 5200.99 722.65 5200.99 762.911C5200.99 799.535 5190.21 831.672 5168.66 859.321C5147.35 886.971 5118.04 908.557 5080.75 924.08C5043.69 939.36 5000.95 947 4952.52 947C4878.65 947 4819.8 931.599 4775.97 900.796C4732.38 869.751 4706.83 827.549 4699.32 774.19L4851.53 766.186C4856.13 788.742 4867.27 805.962 4884.95 817.847C4902.63 829.489 4925.27 835.31 4952.88 835.31C4980 835.31 5001.8 830.095 5018.27 819.666C5034.98 808.994 5043.45 795.291 5043.69 778.555C5043.45 764.488 5037.52 752.967 5025.89 743.993C5014.27 734.777 4996.35 727.743 4972.13 722.892L4875.5 703.61C4821.01 692.696 4780.45 673.778 4753.81 646.856C4727.41 619.934 4714.21 585.614 4714.21 543.897C4714.21 508.001 4723.9 477.077 4743.28 451.125C4762.89 425.173 4790.38 405.164 4825.74 391.096C4861.34 377.029 4902.99 369.995 4950.7 369.995C5021.17 369.995 5076.63 384.911 5117.07 414.744C5157.76 444.576 5181.49 485.202 5188.27 536.621Z" fill="white"/>
    <path d="M5453.18 613.021V936.086H5298.43V191H5448.82V475.864H5455.36C5467.96 442.879 5488.3 417.048 5516.39 398.372C5544.48 379.454 5579.72 369.995 5622.1 369.995C5660.85 369.995 5694.63 378.484 5723.45 395.462C5752.51 412.197 5775.04 436.33 5791.02 467.86C5807.25 499.148 5815.24 536.621 5814.99 580.278V936.086H5660.24V607.928C5660.49 573.487 5651.77 546.686 5634.09 527.525C5616.65 508.365 5592.19 498.784 5560.71 498.784C5539.64 498.784 5520.99 503.271 5504.77 512.245C5488.78 521.219 5476.19 534.317 5466.99 551.537C5458.03 568.515 5453.43 589.01 5453.18 613.021Z" fill="white"/>
    <defs>
		<linearGradient id="paint0_linear_0_1" x1="1171" y1="-31.0001" x2="-94.4656" y2="825.623" gradientUnits="userSpaceOnUse">
			<stop stop-color="#FFA438"/>
			<stop offset="1" stop-color="#EC5E91"/>
		</linearGradient>
    </defs>
</svg>