<svg width="512" height="512" viewBox="0 0 512 512" fill="none" xmlns="http://www.w3.org/2000/svg">
<rect width="512" height="512" fill="url(#paint0_linear_67_8)"/>
<path d="M166.427 148.981H292.579C293.198 148.981 293.7 149.501 293.7 150.142V196.117C293.7 196.635 293.369 197.089 292.888 197.232L265.291 205.427C259.305 207.205 252.959 207.229 246.961 205.495L204.056 193.099C197.444 191.189 190.425 191.417 183.942 193.753L145.49 207.609C144.761 207.872 144 207.312 144 206.514V172.183C144 159.369 154.041 148.981 166.427 148.981Z" fill="url(#paint1_linear_67_8)"/>
<path fill-rule="evenodd" clip-rule="evenodd" d="M265.291 216.448L296.572 207.159C296.893 207.064 297.236 207.16 297.48 207.396L340.508 249.102C345.609 254.046 353.926 254.046 359.027 249.102L366.382 241.973C367.098 241.278 368.27 241.804 368.27 242.819L368.27 357.798C368.27 370.612 358.229 381 345.843 381H166.427C154.041 381 144 370.612 144 357.798V219.991C144 219.498 144.302 219.058 144.753 218.896L183.942 204.774C190.425 202.438 197.444 202.21 204.056 204.12L246.961 216.516C252.959 218.249 259.305 218.226 265.291 216.448ZM203.228 265.571C194.36 265.571 187.172 272.536 187.172 281.127C187.172 289.719 194.36 296.684 203.228 296.684C212.096 296.684 219.284 289.719 219.284 281.127C219.284 272.536 212.096 265.571 203.228 265.571ZM240.997 281.127C240.997 272.536 248.185 265.571 257.053 265.571C265.92 265.571 273.109 272.536 273.109 281.127C273.109 289.719 265.92 296.684 257.053 296.684C248.185 296.684 240.997 289.719 240.997 281.127ZM310.878 265.571C302.01 265.571 294.821 272.536 294.821 281.127C294.821 289.719 302.01 296.684 310.878 296.684C319.745 296.684 326.934 289.719 326.934 281.127C326.934 272.536 319.745 265.571 310.878 265.571Z" fill="url(#paint2_linear_67_8)"/>
<path fill-rule="evenodd" clip-rule="evenodd" d="M304.914 149.529C304.914 144.947 308.118 140.946 312.699 139.808L346.884 131.315C348.572 130.895 350.342 130.895 352.03 131.315L386.214 139.808C390.796 140.946 394 144.947 394 149.529V194.419C394 197.066 392.921 199.605 390.997 201.485L356.813 234.891C352.761 238.851 346.153 238.851 342.101 234.891L307.916 201.485C305.993 199.605 304.914 197.066 304.914 194.419V149.529ZM331.731 181.735C330.432 180.468 331.358 178.312 333.2 178.312H334.448C334.942 178.312 335.419 178.483 335.795 178.794L342.996 184.757C343.81 185.431 345.02 185.393 345.787 184.67L363.604 167.864C364.267 167.238 365.279 167.115 366.081 167.561L367.282 168.23C368.462 168.886 368.679 170.448 367.721 171.384L345.902 192.685C345.092 193.476 343.773 193.476 342.962 192.686L331.731 181.735Z" fill="url(#paint3_linear_67_8)"/>
<defs>
<linearGradient id="paint0_linear_67_8" x1="0" y1="512" x2="512" y2="0" gradientUnits="userSpaceOnUse">
<stop/>
<stop offset="1" stop-color="#252525"/>
</linearGradient>
<linearGradient id="paint1_linear_67_8" x1="394" y1="131" x2="144" y2="314.333" gradientUnits="userSpaceOnUse">
<stop stop-color="#FF9E45"/>
<stop offset="1" stop-color="#EC5E91"/>
</linearGradient>
<linearGradient id="paint2_linear_67_8" x1="394" y1="131" x2="144" y2="314.333" gradientUnits="userSpaceOnUse">
<stop stop-color="#FF9E45"/>
<stop offset="1" stop-color="#EC5E91"/>
</linearGradient>
<linearGradient id="paint3_linear_67_8" x1="394" y1="131" x2="144" y2="314.333" gradientUnits="userSpaceOnUse">
<stop stop-color="#FF9E45"/>
<stop offset="1" stop-color="#EC5E91"/>
</linearGradient>
</defs>
</svg>
