<svg width="512" height="512" viewBox="0 0 512 512" fill="none" xmlns="http://www.w3.org/2000/svg">
<rect width="512" height="512" fill="url(#paint0_linear_45_226)"/>
<path fill-rule="evenodd" clip-rule="evenodd" d="M291.693 133.965C291.693 129.028 295.264 124.717 300.372 123.49L338.478 114.339C340.36 113.887 342.333 113.887 344.215 114.339L382.321 123.49C387.428 124.717 391 129.028 391 133.965V182.334C391 185.186 389.797 187.922 387.653 189.948L349.547 225.942C345.029 230.21 337.664 230.21 333.146 225.942L295.04 189.948C292.896 187.922 291.693 185.186 291.693 182.334V133.965ZM321.587 168.667C320.139 167.302 321.171 164.979 323.225 164.979H324.616C325.166 164.979 325.699 165.163 326.117 165.498L334.144 171.924C335.051 172.65 336.4 172.609 337.256 171.829L357.117 153.721C357.856 153.046 358.983 152.913 359.878 153.395L361.217 154.115C362.532 154.823 362.774 156.506 361.706 157.514L337.384 180.466C336.481 181.318 335.01 181.318 334.107 180.467L321.587 168.667Z" fill="url(#paint1_linear_45_226)"/>
<path fill-rule="evenodd" clip-rule="evenodd" d="M280.145 150.934C280.145 150.424 279.764 149.982 279.23 149.88C271.784 148.46 264.077 147.715 256.185 147.715C192.57 147.715 141 196.011 141 255.587V362.919C141 363.516 141.517 364 142.155 364H255.896C319.67 364 371.37 315.448 371.37 255.722C371.37 246.598 370.16 237.736 367.883 229.269C367.666 228.461 366.591 228.194 365.965 228.787L349.552 244.311C345.033 248.585 337.659 248.585 333.141 244.311L283.487 197.345C281.346 195.32 280.145 192.586 280.145 189.736V150.934ZM190.654 255.857C190.654 246.6 198.667 239.095 208.552 239.095C218.437 239.095 226.45 246.6 226.45 255.857C226.45 265.115 218.437 272.62 208.552 272.62C198.667 272.62 190.654 265.115 190.654 255.857ZM257.051 239.095C247.166 239.095 239.152 246.6 239.152 255.857C239.152 265.115 247.166 272.62 257.051 272.62C266.936 272.62 274.949 265.115 274.949 255.857C274.949 246.6 266.936 239.095 257.051 239.095ZM287.651 255.857C287.651 246.6 295.665 239.095 305.55 239.095C315.435 239.095 323.448 246.6 323.448 255.857C323.448 265.115 315.435 272.62 305.55 272.62C295.665 272.62 287.651 265.115 287.651 255.857Z" fill="url(#paint2_linear_45_226)"/>
<defs>
<linearGradient id="paint0_linear_45_226" x1="0" y1="512" x2="512" y2="0" gradientUnits="userSpaceOnUse">
<stop/>
<stop offset="1" stop-color="#252525"/>
</linearGradient>
<linearGradient id="paint1_linear_45_226" x1="391" y1="114" x2="141" y2="297.333" gradientUnits="userSpaceOnUse">
<stop stop-color="#FF9E45"/>
<stop offset="1" stop-color="#EC5E91"/>
</linearGradient>
<linearGradient id="paint2_linear_45_226" x1="391" y1="114" x2="141" y2="297.333" gradientUnits="userSpaceOnUse">
<stop stop-color="#FF9E45"/>
<stop offset="1" stop-color="#EC5E91"/>
</linearGradient>
</defs>
</svg>
