<svg width="512" height="512" viewBox="0 0 512 512" fill="none" xmlns="http://www.w3.org/2000/svg">
<rect width="512" height="512" fill="url(#paint0_linear_74_26)"/>
<path d="M181.176 148.074C176.442 141.174 165.833 142.793 163.372 150.79L132.638 250.678C131.619 253.987 132.385 257.587 134.662 260.195L222.585 360.915C228.661 367.875 240.118 363.578 240.118 354.338V320.924C240.118 319.331 239.737 317.761 239.008 316.345L215.433 270.579C212.005 263.924 216.837 256 224.323 256H226.637H256.181H286.024H287.761C295.228 256 300.061 263.885 296.672 270.538L273.334 316.362C272.618 317.767 272.245 319.322 272.245 320.9V354.271C272.245 363.519 283.719 367.812 289.789 360.835L377.352 260.193C379.621 257.585 380.382 253.991 379.366 250.688L348.67 150.928C346.202 142.906 335.547 141.31 330.836 148.256L288.999 209.946C287.138 212.69 284.038 214.333 280.723 214.333H231.903C228.607 214.333 225.522 212.709 223.657 209.991L181.176 148.074Z" fill="url(#paint1_linear_74_26)"/>
<defs>
<linearGradient id="paint0_linear_74_26" x1="0" y1="512" x2="512" y2="0" gradientUnits="userSpaceOnUse">
<stop/>
<stop offset="1" stop-color="#252525"/>
</linearGradient>
<linearGradient id="paint1_linear_74_26" x1="381" y1="131" x2="131" y2="314.333" gradientUnits="userSpaceOnUse">
<stop stop-color="#FF9E45"/>
<stop offset="1" stop-color="#EC5E91"/>
</linearGradient>
</defs>
</svg>
